<svg xmlns="http://www.w3.org/2000/svg" viewBox="0 0 64 64" role="img" aria-label="Fuego">
	<path d="M33.5 4c1.2 7.3-1.8 11.8-6.3 16.1-4.4 4.2-9.6 8.2-9.6 16.2 0 7.9 5.8 13.2 14.4 13.2 8.9 0 15.5-6.4 15.5-15.4 0-5.7-2.5-10.4-5.8-14.1 0 4.4-2 7.7-5.4 10.3.6-5.8-1.4-11.6-2.8-15.4C32 10.5 31.8 7 33.5 4Z" fill="#ff8a00"/>
	<path d="M25.3 21.1c2 4.2 2.4 8.3 1.1 12.7-1.1 3.6.4 7.2 3.4 9.2 3 2 6.9 1.8 9.7-.6 3-2.5 4.2-6.8 3-10.6-1.2-3.8-4-6.7-6.2-9.3-2.2 3.3-5.2 5.4-10 8.1-.2-3.2-1-6.1-3-9.5Z" fill="#ffd34d"/>
	<path d="M30 43.8c-2.4 2.1-3.7 4.7-3.7 7.8 0 4.8 3.7 8.4 8.7 8.4 5.7 0 9.8-4 9.8-9.5 0-2.8-1.1-5.3-3-7.3-.5 2.1-1.7 3.8-3.7 5-1.7 1-3.7 1.4-6.2 1.3-2 0-3.8-.4-5.9-1.7Z" fill="#d94b00"/>
</svg>